<?xml version="1.0" encoding="UTF-8"?>
<svg width="16px" height="16px" viewBox="0 0 16 16" version="1.1" xmlns="http://www.w3.org/2000/svg" xmlns:xlink="http://www.w3.org/1999/xlink">
    <title>Group 27</title>
    <g id="Page-1" stroke="none" stroke-width="1" fill="none" fill-rule="evenodd">
        <g id="Main-Copy" transform="translate(-324.000000, -2237.000000)">
            <g id="Group-27" transform="translate(324.000000, 2237.000000)">
                <rect id="Rectangle" fill-opacity="0" fill="#D8D8D8" x="0" y="0" width="16" height="16"></rect>
                <g id="Group-5" transform="translate(2.500000, 3.200000)" fill="#3C81F6">
                    <path d="M8.21918106,9.54545455 C8.15248303,9.54545455 8.08685919,9.51992984 8.03803193,9.47192815 L5.96922095,7.44099963 L3.6890856,7.44099963 C3.40549687,7.44099963 3.13890004,7.33328156 2.93841531,7.13775087 C2.83871005,7.04041412 2.83871005,6.88288477 2.93841531,6.78564326 C3.03812057,6.68849699 3.1997388,6.68849699 3.29944407,6.78564326 C3.40354378,6.88717064 3.54192024,6.94307736 3.6890856,6.94307736 L6.07546907,6.94307736 C6.14343661,6.94307736 6.20866983,6.96955449 6.25652055,7.01660376 L7.9638145,8.69266267 L7.9638145,7.1920385 C7.9638145,7.05450985 8.07816794,6.94307736 8.21908341,6.94307736 L9.43839773,6.94307736 C9.74229859,6.94307736 9.98946218,6.70192603 9.98946218,6.4056299 L9.98946218,2.94436539 C9.98946218,2.64806926 9.74229859,2.40701317 9.43839773,2.40701317 L7.97816971,2.40701317 C7.83725424,2.40701317 7.7229008,2.29548544 7.7229008,2.15805204 C7.7229008,2.0205234 7.83725424,1.90909091 7.97816971,1.90909091 L9.43839773,1.90909091 C10.0237389,1.90909091 10.5,2.37348818 10.5,2.94436539 L10.5,6.4056299 C10.5,6.97650711 10.0237389,7.44099963 9.43839773,7.44099963 L8.47435232,7.44099963 L8.47435232,9.29649341 C8.47435232,9.3973541 8.41204874,9.48821444 8.31644496,9.52669198 C8.28500021,9.53935909 8.25189533,9.54545455 8.21918106,9.54545455" id="Fill-5"></path>
                    <path d="M1.02975723,0.497922263 C0.73497253,0.497922263 0.495223145,0.738978354 0.495223145,1.03536972 L0.495223145,4.49653899 C0.495223145,4.79293036 0.73497253,5.03398646 1.02975723,5.03398646 L2.21240088,5.03398646 C2.34918401,5.03398646 2.46001245,5.14551418 2.46001245,5.28294759 L2.46001245,6.78357176 L4.11609245,5.10751285 C4.16260251,5.06046358 4.22587891,5.03398646 4.29180763,5.03398646 L6.6066064,5.03398646 C6.90139111,5.03398646 7.14114049,4.79293036 7.14114049,4.49653899 L7.14114049,1.03536972 C7.14114049,0.738978354 6.90139111,0.497922263 6.6066064,0.497922263 L1.02975723,0.497922263 Z M2.21240088,7.63636364 C2.18057322,7.63636364 2.14865084,7.63026818 2.11805462,7.61760107 C2.02531868,7.57912353 1.96488403,7.48826319 1.96488403,7.38740251 L1.96488403,5.53190872 L1.02975723,5.53190872 C0.461974614,5.53190872 0,5.0674162 0,4.49653899 L0,1.03536972 C0,0.464397275 0.461974614,0 1.02975723,0 L6.6066064,0 C7.17438902,0 7.63636364,0.464397275 7.63636364,1.03536972 L7.63636364,4.49653899 C7.63636364,5.0674162 7.17438902,5.53190872 6.6066064,5.53190872 L4.3948686,5.53190872 L2.38811605,7.56293248 C2.34065875,7.61083893 2.27709816,7.63636364 2.21240088,7.63636364 L2.21240088,7.63636364 Z" id="Fill-7"></path>
                </g>
            </g>
        </g>
    </g>
</svg>