<?xml version="1.0" encoding="UTF-8"?>
<svg width="16px" height="16px" viewBox="0 0 16 16" version="1.1" xmlns="http://www.w3.org/2000/svg" xmlns:xlink="http://www.w3.org/1999/xlink">
    <title>Group 26</title>
    <g id="Page-1" stroke="none" stroke-width="1" fill="none" fill-rule="evenodd">
        <g id="Main-Copy" transform="translate(-385.000000, -2237.000000)">
            <g id="Group-26" transform="translate(385.000000, 2237.000000)">
                <rect id="Rectangle-Copy-2" fill-opacity="0" fill="#D8D8D8" x="0" y="0" width="16" height="16"></rect>
                <g id="Group-23" transform="translate(3.000000, 3.250000)" fill="#8B5DF6">
                    <g id="Group-24" transform="translate(3.000000, 0.000000)">
                        <path d="M6.72471378,2.75 L0.275286224,2.75 C0.123215333,2.75 0,2.63810252 0,2.5 C0,2.36199311 0.123215333,2.25 0.275286224,2.25 L6.72471378,2.25 C6.87678467,2.25 7,2.36199311 7,2.5 C7,2.63810252 6.87678467,2.75 6.72471378,2.75" id="Fill-5"></path>
                        <path d="M4.24434383,5 C4.17492689,5 4.10607052,4.96894087 4.05776829,4.90869602 C3.97069348,4.80003838 3.98349311,4.63744631 4.08645066,4.54555073 L6.3776767,2.49998671 L4.08645066,0.454521285 C3.98349311,0.362527107 3.97069348,0.199935037 4.05776829,0.0912773899 C4.14493653,-0.0173802574 4.29899915,-0.0309871135 4.40195671,0.0610070653 L6.91357918,2.3032789 C6.96842137,2.3521847 7,2.42416299 7,2.49998671 C7,2.57581042 6.96842137,2.64788732 6.91357918,2.69679312 L4.40195671,4.93906495 C4.35608361,4.97998412 4.30002686,5 4.24434383,5" id="Fill-7"></path>
                    </g>
                    <g id="Group-25" transform="translate(0.000000, 4.500000)">
                        <path d="M6.72471378,2.75 L0.275286224,2.75 C0.123215333,2.75 0,2.63810252 0,2.5 C0,2.36199311 0.123215333,2.25 0.275286224,2.25 L6.72471378,2.25 C6.87678467,2.25 7,2.36199311 7,2.5 C7,2.63810252 6.87678467,2.75 6.72471378,2.75" id="Fill-9"></path>
                        <path d="M2.75565617,5 C2.69997314,5 2.64391639,4.97998412 2.59804329,4.93906495 L0.0864208157,2.69669452 C0.0315786332,2.64778872 0,2.57581042 0,2.49998671 C0,2.42416299 0.0315786332,2.3521847 0.0864208157,2.3031803 L2.59804329,0.0610070653 C2.70100085,-0.0309871135 2.85506347,-0.0173802574 2.94223171,0.0912773899 C3.02930652,0.199935037 3.01650689,0.362527107 2.91354934,0.454521285 L0.622323301,2.49998671 L2.91354934,4.54555073 C3.01650689,4.63744631 3.02930652,4.80003838 2.94223171,4.90869602 C2.89392948,4.96894087 2.82497968,5 2.75565617,5" id="Fill-11"></path>
                    </g>
                </g>
            </g>
        </g>
    </g>
</svg>