<?xml version="1.0" encoding="UTF-8"?>
<svg width="16px" height="16px" viewBox="0 0 16 16" version="1.1" xmlns="http://www.w3.org/2000/svg" xmlns:xlink="http://www.w3.org/1999/xlink">
    <title>Group 28</title>
    <g id="Page-1" stroke="none" stroke-width="1" fill="none" fill-rule="evenodd">
        <g id="Main-Copy" transform="translate(-493.000000, -2237.000000)">
            <g id="Group-28" transform="translate(493.000000, 2237.000000)">
                <rect id="Rectangle-Copy-3" fill-opacity="0" fill="#D8D8D8" x="0" y="0" width="16" height="16"></rect>
                <g id="Group-10" transform="translate(3.000000, 3.500000)" fill="#EF4444">
                    <path d="M2.45361708,1.94817395 L7.49638292,1.94817395 L7.49638292,1.05784252 C7.49638292,0.77876293 7.24803166,0.55182605 6.94287482,0.55182605 L3.00724063,0.55182605 C2.70196834,0.55182605 2.45361708,0.77876293 2.45361708,1.05784252 L2.45361708,1.94817395 Z M8.1,2.5 L1.85,2.5 L1.85,1.05784252 C1.85,0.474561959 2.36910146,0 3.00724063,0 L6.94287482,0 C7.58089854,0 8.1,0.474561959 8.1,1.05784252 L8.1,2.5 Z" id="Fill-5"></path>
                    <path d="M9.35,4.5 L8.73459365,4.5 L8.73459365,3.1454889 C8.73459365,2.82331344 8.44725492,2.56115 8.09399661,2.56115 L1.85600339,2.56115 C1.50274508,2.56115 1.21540635,2.82331344 1.21540635,3.1454889 L1.21540635,4.5 L0.6,4.5 L0.6,3.1454889 C0.6,2.51380599 1.16349468,2 1.85600339,2 L8.09399661,2 C8.78650532,2 9.35,2.51380599 9.35,3.1454889 L9.35,4.5 Z" id="Fill-7"></path>
                    <path d="M0.892505735,4.54694202 C0.713765398,4.54694202 0.56840297,4.68692068 0.56840297,4.85891239 L0.56840297,8.14119222 C0.56840297,8.31318394 0.713765398,8.45305798 0.892505735,8.45305798 L9.10749426,8.45305798 C9.28612588,8.45305798 9.43159703,8.31318394 9.43159703,8.14119222 L9.43159703,4.85891239 C9.43159703,4.68692068 9.28612588,4.54694202 9.10749426,4.54694202 L0.892505735,4.54694202 Z M9.10749426,9 L0.892505735,9 C0.400317471,9 0,8.61469253 0,8.14119222 L0,4.85891239 C0,4.38530747 0.400317471,4 0.892505735,4 L9.10749426,4 C9.59957381,4 10,4.38530747 10,4.85891239 L10,8.14119222 C10,8.61469253 9.59957381,9 9.10749426,9 L9.10749426,9 Z" id="Fill-9"></path>
                </g>
            </g>
        </g>
    </g>
</svg>