<?xml version="1.0" encoding="UTF-8"?>
<svg width="16px" height="16px" viewBox="0 0 16 16" version="1.1" xmlns="http://www.w3.org/2000/svg" xmlns:xlink="http://www.w3.org/1999/xlink">
    <title>Group 29</title>
    <g id="Page-1" stroke="none" stroke-width="1" fill="none" fill-rule="evenodd">
        <g id="Main-Copy" transform="translate(-439.000000, -2237.000000)">
            <g id="Group-29" transform="translate(439.000000, 2237.000000)">
                <rect id="Rectangle-Copy-4" fill-opacity="0" fill="#D8D8D8" x="0" y="0" width="16" height="16"></rect>
                <g id="iconmonstr-heart-thin" transform="translate(3.000000, 3.350000)" fill="#ED57A1">
                    <path d="M5,8.53 C2.71718357,6.26837595 0.539790288,4.3256413 0.539790288,2.64953249 C0.539790288,1.10163273 1.78378332,0.53 2.68109642,0.53 C3.2130778,0.53 4.36421738,0.734562854 5,2.34983361 C5.64470304,0.729663145 6.8100342,0.534083091 7.32174189,0.534083091 C8.35164486,0.534083091 9.46020971,1.19595213 9.46020971,2.64953249 C9.46020971,4.31094217 7.37769725,6.17119839 5,8.53 M7.38583333,0.0041958042 C6.46791667,0.0041958042 5.53333333,0.441398601 5,1.3627972 C4.46458333,0.437202797 3.5325,0 2.61708333,0 C1.29083333,0 0,0.917622378 0,2.59762238 C0,4.55328671 2.32125,6.55384615 5,9.23076923 C7.67916667,6.55384615 10,4.55328671 10,2.59762238 C10,0.914685315 8.71041667,0.0041958042 7.38583333,0.0041958042" id="Shape"></path>
                </g>
            </g>
        </g>
    </g>
</svg>