<?xml version="1.0" encoding="UTF-8"?>
<svg width="60px" height="60px" viewBox="0 0 60 60" version="1.1" xmlns="http://www.w3.org/2000/svg" xmlns:xlink="http://www.w3.org/1999/xlink">
    <title>Group 30</title>
    <defs>
        <polygon id="path-1" points="-0.02377295 0.440454545 36.1111111 0.440454545 36.1111111 26.1152406 -0.02377295 26.1152406"></polygon>
    </defs>
    <g id="Page-1" stroke="none" stroke-width="1" fill="none" fill-rule="evenodd">
        <g id="MainCuration/Collection-1-Copy-9" transform="translate(-1360.000000, -862.000000)">
            <g id="Group-30" transform="translate(1360.000000, 862.000000)">
                <rect id="Rectangle-Copy-12" x="0" y="0" width="60" height="60"></rect>
                <g id="Discord-logo-hover" transform="translate(12.000000, 17.000000)">
                    <mask id="mask-2" fill="white">
                        <use xlink:href="#path-1"></use>
                    </mask>
                    <g id="Clip-2"></g>
                    <path d="M23.5505264,18.6269089 C21.818032,18.6269089 20.3949115,17.0986779 20.3949115,15.2342362 C20.3949115,13.3697944 21.7870946,11.8415635 23.5505264,11.8415635 C25.3139583,11.8415635 26.7061413,13.3697944 26.7061413,15.2342362 C26.7061413,17.0986779 25.3139583,18.6269089 23.5505264,18.6269089 M12.2583751,18.6269089 C10.5258807,18.6269089 9.10276027,17.0986779 9.10276027,15.2342362 C9.10276027,13.3697944 10.4949433,11.8415635 12.2583751,11.8415635 C14.021807,11.8415635 15.4449274,13.3697944 15.41399,15.2342362 C15.41399,17.0986779 14.021807,18.6269089 12.2583751,18.6269089 M31.6561254,3.65024552 C27.2011397,0.349266655 22.9627158,0.440706513 22.9627158,0.440706513 L22.5295922,0.929994419 C27.7889503,2.51935461 30.233005,4.81170105 30.233005,4.81170105 C27.0155153,3.06951776 23.8599004,2.21370842 20.9208473,1.87749761 C18.6933545,1.63298066 16.5586738,1.6941099 14.6714924,1.93862685 L14.1455566,1.99975609 C13.0627476,2.09144995 10.4330685,2.48878999 7.12276662,3.92532709 L5.29745998,4.81170105 C5.29745998,4.81170105 7.86526424,2.39709614 13.4339964,0.807735942 L13.1246224,0.440706513 C13.1246224,0.440706513 8.88619846,0.349266655 4.43121276,3.65024552 C4.43121276,3.65024552 -0.02377295,11.6276111 -0.02377295,21.4694185 C-0.02377295,21.4694185 2.57496871,25.9012883 9.41213427,26.1152406 L11.4849401,23.5783772 C7.55589023,22.4169217 6.070895,19.9717521 6.070895,19.9717521 L6.93714222,20.4913507 L7.06089182,20.5830445 L7.18464142,20.6518149 L7.219446,20.6670972 L7.33932843,20.7358676 C8.11276344,21.1637723 8.88619846,21.4999831 9.59775868,21.7750647 C10.8661921,22.2640986 12.3821247,22.7531325 14.1455566,23.0893433 C16.4658616,23.517248 19.1883529,23.6700711 22.1583434,23.1199079 C23.6124012,22.875391 25.0973964,22.4474863 26.6442665,21.8056293 C27.7270755,21.4082892 28.9336341,20.8275615 30.2020676,20.0023168 C30.2020676,20.0023168 28.6551975,22.5086155 24.602398,23.6395064 L26.6442665,26.1152406 C33.481432,25.9012883 36.1111111,21.4694185 36.1111111,21.4694185 C36.1111111,11.6276111 31.6561254,3.65024552 31.6561254,3.65024552" id="Fill-1" fill="#FFFFFF" mask="url(#mask-2)"></path>
                </g>
            </g>
        </g>
    </g>
</svg>