<?xml version="1.0" encoding="UTF-8"?>
<svg width="60px" height="60px" viewBox="0 0 60 60" version="1.1" xmlns="http://www.w3.org/2000/svg" xmlns:xlink="http://www.w3.org/1999/xlink">
    <title>Group 9</title>
    <defs>
        <polygon id="path-1" points="0 0 29.9530185 0 29.9530185 30 0 30"></polygon>
    </defs>
    <g id="Page-1" stroke="none" stroke-width="1" fill="none" fill-rule="evenodd">
        <g id="MainCuration/Collection-1-Copy-9" transform="translate(-1360.000000, -658.000000)">
            <g id="Group-9" transform="translate(1360.000000, 658.000000)">
                <rect id="Rectangle" x="0" y="0" width="60" height="60"></rect>
                <g id="KNN3-logo-hover" transform="translate(15.000000, 15.000000)">
                    <mask id="mask-2" fill="white">
                        <use xlink:href="#path-1"></use>
                    </mask>
                    <g id="Clip-2"></g>
                    <path d="M18.7214496,5.96378819 C18.7214496,5.96378819 18.5553928,7.50604255 16.3002625,7.50604255 L13.4847242,7.50604255 C11.2295939,7.50604255 11.2337612,5.96378819 11.2337612,5.96378819 L11.2337612,-3.62371796e-05 L-3.62371796e-05,-3.62371796e-05 L-3.62371796e-05,30 L11.2337612,30 L11.2337612,24.0461408 C11.2337612,24.0461408 11.2295939,22.503977 13.4847242,22.503977 L16.2720881,22.503977 C18.5131764,22.503977 18.6932752,24.0263009 18.6932752,24.0453255 L18.6932752,30 L29.9530729,30 L29.9530729,22.508869 L20.9988658,22.508869 C18.7577774,22.508869 18.7479028,20.9866357 18.7478122,20.9676112 L18.6933658,18.7462721 L13.4847242,18.7462721 C11.2295939,18.7462721 11.2337612,17.2041083 11.2337612,17.2041083 L11.2337612,12.7951307 C11.2337612,12.7951307 11.2295939,11.2529669 13.4847242,11.2529669 L18.7214496,11.2529669 L18.7214496,9.04820632 C18.7214496,9.04820632 18.7172824,7.50604255 20.9725032,7.50604255 L29.9530729,7.50604255 L29.9530729,-3.62371796e-05 L18.7214496,-3.62371796e-05 L18.7214496,5.96378819 Z" id="Fill-1" fill="#FFFFFF" mask="url(#mask-2)"></path>
                </g>
            </g>
        </g>
    </g>
</svg>