<?xml version="1.0" encoding="UTF-8"?>
<svg width="60px" height="60px" viewBox="0 0 60 60" version="1.1" xmlns="http://www.w3.org/2000/svg" xmlns:xlink="http://www.w3.org/1999/xlink">
    <title>Group 22</title>
    <defs>
        <polygon id="path-1" points="-0.0677419355 0.580986516 34.2548387 0.580986516 34.2548387 28.5809865 -0.0677419355 28.5809865"></polygon>
    </defs>
    <g id="Page-1" stroke="none" stroke-width="1" fill="none" fill-rule="evenodd">
        <g id="MainCuration/Collection-1-Copy-9" transform="translate(-1360.000000, -794.000000)">
            <g id="Group-22" transform="translate(1360.000000, 794.000000)">
                <rect id="Rectangle-Copy-7" x="0" y="0" width="60" height="60"></rect>
                <g id="Twitter-logo-hover" transform="translate(13.000000, 16.000000)">
                    <mask id="mask-2" fill="white">
                        <use xlink:href="#path-1"></use>
                    </mask>
                    <g id="Clip-2"></g>
                    <path d="M30.7410096,7.55151394 C30.7619253,7.85529476 30.7619253,8.15907559 30.7619253,8.46565624 C30.7619253,17.8072666 23.678492,28.5809865 10.7261275,28.5809865 L10.7261275,28.5753869 C6.89995806,28.5809865 3.15326807,27.480656 -0.0677419355,25.4059869 C0.488614338,25.4731827 1.04775937,25.5067806 1.60829877,25.5081805 C4.77911122,25.5109803 7.85928918,24.4428477 10.353829,22.4759719 C7.34058108,22.4185755 4.69823737,20.4461 3.77516005,17.5664818 C4.83070315,17.7708689 5.91831692,17.7288715 6.95433875,17.4446895 C3.66918742,16.7783315 1.30571904,13.8805144 1.30571904,10.5151269 L1.30571904,10.4255325 C2.28457143,10.972898 3.38055146,11.2766788 4.50163027,11.3102767 C1.40750853,9.23420772 0.453754923,5.10166858 2.3222196,1.87067252 C5.89740127,6.28739373 11.172328,8.97242425 16.8348915,9.25660631 C16.2673802,6.8011613 17.0426536,4.22812372 18.8720758,2.50203267 C21.7082378,-0.174598375 26.1688487,-0.0374070349 28.8348968,2.80861332 C30.4119367,2.49643302 31.923441,1.9154697 33.3066626,1.09232165 C32.7809826,2.72881836 31.6808195,4.11893061 30.2111465,5.00227485 C31.6069175,4.83708528 32.9706178,4.46190896 34.2548387,3.8893451 C33.3094514,5.31165532 32.1186537,6.55057712 30.7410096,7.55151394" id="Fill-1" fill="#FFFFFF" mask="url(#mask-2)"></path>
                </g>
            </g>
        </g>
    </g>
</svg>